<svg xmlns="http://www.w3.org/2000/svg" width="221" height="200" fill="none" xmlns:v="https://vecta.io/nano"><path d="M48.197 6.582L110.451 0l62.254 6.582 48.197 64.7-110.451 128.62L0 71.282l48.197-64.7z" fill="#fdb300"/><g fill="#ea6c00"><path d="M44.738 71.282l65.713 128.62L0 71.282h44.738z"/><path d="M176.164 71.282l-65.713 128.62 110.451-128.62h-44.738z"/></g><path d="M44.738 71.282h131.426l-65.713 128.62-65.713-128.62z" fill="#fdad00"/><g fill="#fdd231"><path d="M110.451 0L48.197 6.581l-3.458 64.7L110.451 0z"/><path d="M110.451 0l62.254 6.581 3.459 64.7L110.451 0z"/></g><path d="M220.902 71.282l-48.197-64.7 3.459 64.7h44.738zM0 71.282l48.197-64.7-3.458 64.7H0z" fill="#fdad00"/><path d="M110.451 0L44.738 71.282h131.426L110.451 0z" fill="#feeeb7"/></svg>