<svg xmlns="http://www.w3.org/2000/svg" width="134" height="200" fill="none" xmlns:v="https://vecta.io/nano"><g clip-path="url(#A)"><path d="M33.347 200c18.4 0 33.333-14.933 33.333-33.333v-33.334H33.347c-18.4 0-33.333 14.934-33.333 33.334S14.947 200 33.347 200z" fill="#0acf83"/><path d="M.013 100c0-18.4 14.933-33.333 33.333-33.333H66.68v66.666H33.347C14.947 133.333.013 118.4.013 100z" fill="#a259ff"/><path d="M.013 33.333C.013 14.933 14.947 0 33.347 0H66.68v66.667H33.347c-18.4 0-33.333-14.933-33.333-33.333z" fill="#f24e1e"/><path d="M66.68 0h33.333c18.4 0 33.334 14.933 33.334 33.333s-14.934 33.333-33.334 33.333H66.68V0z" fill="#ff7262"/><path d="M133.347 100c0 18.4-14.934 33.333-33.334 33.333S66.68 118.4 66.68 100s14.933-33.333 33.333-33.333S133.347 81.6 133.347 100z" fill="#1abcfe"/></g><defs><clipPath id="A"><path fill="#fff" d="M0 0h133.36v200H0z"/></clipPath></defs></svg>